<mxfile host="app.diagrams.net" modified="2021-08-05T12:43:26.795Z" agent="5.0 (Windows NT 10.0; Win64; x64) AppleWebKit/537.36 (KHTML, like Gecko) Chrome/92.0.4515.131 Safari/537.36" etag="SAeE5hqgQMKZ6iG3U7a_" version="14.9.4" type="github">
  <diagram id="DRiA_wUBfm8uBkGvw0nA" name="페이지-1">
    <mxGraphModel dx="1038" dy="547" grid="1" gridSize="10" guides="1" tooltips="1" connect="1" arrows="1" fold="1" page="1" pageScale="1" pageWidth="850" pageHeight="1100" math="0" shadow="0">
      <root>
        <mxCell id="0" />
        <mxCell id="1" parent="0" />
        <mxCell id="ajHGEInrqWTRPbTaMLrb-19" value="" style="edgeStyle=orthogonalEdgeStyle;rounded=0;orthogonalLoop=1;jettySize=auto;html=1;entryX=0;entryY=0.5;entryDx=0;entryDy=0;" edge="1" parent="1" source="ajHGEInrqWTRPbTaMLrb-1" target="ajHGEInrqWTRPbTaMLrb-4">
          <mxGeometry relative="1" as="geometry" />
        </mxCell>
        <mxCell id="ajHGEInrqWTRPbTaMLrb-1" value="Data.js&lt;br&gt;(남자용 상품)" style="rounded=0;whiteSpace=wrap;html=1;" vertex="1" parent="1">
          <mxGeometry x="340" y="170" width="120" height="60" as="geometry" />
        </mxCell>
        <mxCell id="ajHGEInrqWTRPbTaMLrb-21" value="" style="edgeStyle=orthogonalEdgeStyle;rounded=0;orthogonalLoop=1;jettySize=auto;html=1;" edge="1" parent="1" source="ajHGEInrqWTRPbTaMLrb-2" target="ajHGEInrqWTRPbTaMLrb-4">
          <mxGeometry relative="1" as="geometry" />
        </mxCell>
        <mxCell id="ajHGEInrqWTRPbTaMLrb-2" value="Data2.js&lt;br&gt;(남자용 상품)" style="rounded=0;whiteSpace=wrap;html=1;" vertex="1" parent="1">
          <mxGeometry x="340" y="270" width="120" height="60" as="geometry" />
        </mxCell>
        <mxCell id="ajHGEInrqWTRPbTaMLrb-7" value="컴포넌트에 Data 전달" style="edgeStyle=orthogonalEdgeStyle;rounded=0;orthogonalLoop=1;jettySize=auto;html=1;" edge="1" parent="1" source="ajHGEInrqWTRPbTaMLrb-4" target="ajHGEInrqWTRPbTaMLrb-5">
          <mxGeometry relative="1" as="geometry" />
        </mxCell>
        <mxCell id="ajHGEInrqWTRPbTaMLrb-4" value="ShoesList&lt;br&gt;(./container/ShoesList.js)" style="rounded=0;whiteSpace=wrap;html=1;fontStyle=1" vertex="1" parent="1">
          <mxGeometry x="540" y="220" width="160" height="60" as="geometry" />
        </mxCell>
        <mxCell id="ajHGEInrqWTRPbTaMLrb-5" value="&lt;b&gt;ShoesItem&lt;br&gt;./component/ShoesItem.js&lt;br&gt;&lt;/b&gt;" style="rounded=0;whiteSpace=wrap;html=1;" vertex="1" parent="1">
          <mxGeometry x="540" y="110" width="160" height="60" as="geometry" />
        </mxCell>
        <mxCell id="ajHGEInrqWTRPbTaMLrb-11" value="" style="edgeStyle=orthogonalEdgeStyle;rounded=0;orthogonalLoop=1;jettySize=auto;html=1;" edge="1" parent="1" source="ajHGEInrqWTRPbTaMLrb-10" target="ajHGEInrqWTRPbTaMLrb-1">
          <mxGeometry relative="1" as="geometry" />
        </mxCell>
        <mxCell id="ajHGEInrqWTRPbTaMLrb-10" value="남자카테고리 선택시" style="text;html=1;fillColor=none;align=center;verticalAlign=middle;whiteSpace=wrap;rounded=0;strokeColor=#000000;" vertex="1" parent="1">
          <mxGeometry x="110" y="190" width="160" height="20" as="geometry" />
        </mxCell>
        <mxCell id="ajHGEInrqWTRPbTaMLrb-14" value="" style="edgeStyle=orthogonalEdgeStyle;rounded=0;orthogonalLoop=1;jettySize=auto;html=1;" edge="1" parent="1" target="ajHGEInrqWTRPbTaMLrb-2">
          <mxGeometry relative="1" as="geometry">
            <mxPoint x="280" y="300" as="sourcePoint" />
          </mxGeometry>
        </mxCell>
        <mxCell id="ajHGEInrqWTRPbTaMLrb-18" value="" style="edgeStyle=orthogonalEdgeStyle;rounded=0;orthogonalLoop=1;jettySize=auto;html=1;" edge="1" parent="1" source="ajHGEInrqWTRPbTaMLrb-17" target="ajHGEInrqWTRPbTaMLrb-2">
          <mxGeometry relative="1" as="geometry" />
        </mxCell>
        <mxCell id="ajHGEInrqWTRPbTaMLrb-17" value="남자카테고리 선택시" style="text;html=1;fillColor=none;align=center;verticalAlign=middle;whiteSpace=wrap;rounded=0;strokeColor=#000000;" vertex="1" parent="1">
          <mxGeometry x="110" y="290" width="160" height="20" as="geometry" />
        </mxCell>
      </root>
    </mxGraphModel>
  </diagram>
</mxfile>
